<?xml version="1.0" standalone="no"?>
<svg
  width="600"
  height="600"
  viewBox="0 0 600 600"
  xmlns="http://www.w3.org/2000/svg"
>
  <g transform="translate(300,300)">
    <path d="M121.3,-182.3C153.6,-143.4,173.8,-103.2,189,-60.5C204.2,-17.7,214.3,27.6,200.9,64.1C187.4,100.7,150.4,128.4,113,154.7C75.6,181.1,37.8,206,7.6,195.5C-22.5,185,-45.1,139,-80.9,112.2C-116.7,85.3,-165.8,77.6,-179.3,54C-192.7,30.5,-170.6,-8.9,-161.1,-56.8C-151.6,-104.7,-154.9,-161.2,-130.1,-202.5C-105.4,-243.8,-52.7,-269.9,-4.1,-264.2C44.5,-258.5,89,-221.1,121.3,-182.3Z" fill="#8ed1fc" />
  </g>
</svg>
  