<?xml version="1.0" encoding="utf-8"?>
<!-- Generator: Adobe Illustrator 19.0.0, SVG Export Plug-In . SVG Version: 6.00 Build 0)  -->
<svg version="1.1" id="Layer_1" xmlns="http://www.w3.org/2000/svg" xmlns:xlink="http://www.w3.org/1999/xlink" x="0px" y="0px"
	 viewBox="0 0 560 560" style="enable-background:new 0 0 560 560;" xml:space="preserve">
<style type="text/css">
	.st0{fill:url(#XMLID_5_);}
	.st1{fill:#FFFFFF;stroke:#000000;stroke-miterlimit:10;}
	.st2{fill:url(#XMLID_6_);}
</style>
<linearGradient id="XMLID_5_" gradientUnits="userSpaceOnUse" x1="117.9474" y1="510.4859" x2="560.8428" y2="510.4859" gradientTransform="matrix(1 0 0 -1 0 560)">
	<stop  offset="0" style="stop-color:#CCE0F4"/>
	<stop  offset="6.405089e-002" style="stop-color:#C3DCF2"/>
	<stop  offset="0.1706" style="stop-color:#A9D2EE"/>
	<stop  offset="0.3066" style="stop-color:#80C2E7"/>
	<stop  offset="0.4649" style="stop-color:#47ACDE"/>
	<stop  offset="0.5674" style="stop-color:#1E9CD7"/>
	<stop  offset="0.8652" style="stop-color:#0075BE"/>
	<stop  offset="0.9944" style="stop-color:#005B97"/>
</linearGradient>
<path id="XMLID_1_" class="st0" d="M559.9,86.6l-432.5,95.1c-16.3,3.6-33.3-0.2-46.5-10.4L1.3,110c-1.4-1.1-2.3-2.8-2.3-4.7V-78.1
	c0-3.3,2.6-5.9,5.9-5.9H560"/>
<path id="XMLID_2_" class="st1" d="M95.6,385.8"/>
<linearGradient id="XMLID_6_" gradientUnits="userSpaceOnUse" x1="116.9474" y1="325.4576" x2="559.8428" y2="325.4576" gradientTransform="matrix(-1 0 0 1 557 235.0283)">
	<stop  offset="0" style="stop-color:#CCE0F4"/>
	<stop  offset="6.405089e-002" style="stop-color:#C3DCF2"/>
	<stop  offset="0.1706" style="stop-color:#A9D2EE"/>
	<stop  offset="0.3066" style="stop-color:#80C2E7"/>
	<stop  offset="0.4649" style="stop-color:#47ACDE"/>
	<stop  offset="0.5674" style="stop-color:#1E9CD7"/>
	<stop  offset="0.8652" style="stop-color:#0075BE"/>
	<stop  offset="0.9944" style="stop-color:#005B97"/>
</linearGradient>
<path id="XMLID_3_" class="st2" d="M-1.9,523.4l432.5-95.1c16.3-3.6,33.3,0.2,46.5,10.4l79.6,61.3c1.4,1.1,2.3,2.8,2.3,4.7v183.4
	c0,3.3-2.6,5.9-5.9,5.9H-2"/>
</svg>
